<svg xmlns="http://www.w3.org/2000/svg" data-name="19" viewBox="0 0 32 40" x="0px" y="0px"><path d="M24,24.5H8c-1.6543,0-3-1.3457-3-3V13.5c0-1.6543,1.3457-3,3-3H24c1.6543,0,3,1.3457,3,3v8c0,1.6543-1.3457,3-3,3ZM8,12.5c-.5518,0-1,.4487-1,1v8c0,.5513,.4482,1,1,1H24c.5518,0,1-.4487,1-1V13.5c0-.5513-.4482-1-1-1H8Z"/><path d="M12,20.5c-1.6543,0-3-1.3457-3-3s1.3457-3,3-3,3,1.3457,3,3-1.3457,3-3,3Zm0-4c-.5518,0-1,.4487-1,1s.4482,1,1,1,1-.4487,1-1-.4482-1-1-1Z"/><path d="M20,20.5c-1.6543,0-3-1.3457-3-3s1.3457-3,3-3,3,1.3457,3,3-1.3457,3-3,3Zm0-4c-.5518,0-1,.4487-1,1s.4482,1,1,1,1-.4487,1-1-.4482-1-1-1Z"/><path d="M16,9.5c-1.6543,0-3-1.3457-3-3s1.3457-3,3-3,3,1.3457,3,3-1.3457,3-3,3Zm0-4c-.5518,0-1,.4487-1,1s.4482,1,1,1,1-.4487,1-1-.4482-1-1-1Z"/><path d="M16,12.5c-.5527,0-1-.4478-1-1v-3c0-.5522,.4473-1,1-1s1,.4478,1,1v3c0,.5522-.4473,1-1,1Z"/><path d="M6,22.5H3c-1.1025,0-2-.897-2-2v-6c0-1.103,.8975-2,2-2h3c.5527,0,1,.4478,1,1v8c0,.5522-.4473,1-1,1ZM3,14.5v6h2v-6H3Z"/><path d="M29,22.5h-3c-.5527,0-1-.4478-1-1V13.5c0-.5522,.4473-1,1-1h3c1.1025,0,2,.897,2,2v6c0,1.103-.8975,2-2,2Zm-2-2h2v-6h-2v6Z"/><path d="M28,13.5c-.5527,0-1-.4478-1-1,0-5.7896-4.71-10.5-10.5-10.5h-1c-5.79,0-10.5,4.7104-10.5,10.5,0,.5522-.4473,1-1,1s-1-.4478-1-1C3,5.6074,8.6074,0,15.5,0h1c6.8926,0,12.5,5.6074,12.5,12.5,0,.5522-.4473,1-1,1Z"/><path d="M26,30h-3.3027c-.5527,0-1-.4478-1-1s.4473-1,1-1h3.3027c.5518,0,1-.4487,1-1v-5.5c0-.5522,.4473-1,1-1s1,.4478,1,1v5.5c0,1.6543-1.3457,3-3,3Z"/><path d="M22,32h-4c-1.1025,0-2-.897-2-2v-2c0-1.103,.8975-2,2-2h4c1.1025,0,2,.897,2,2v2c0,1.103-.8975,2-2,2Zm-4-4v2h4.001l-.001-2h-4Z"/><text x="0" y="47" fill="#000000" font-size="5px" font-weight="bold" font-family="'Helvetica Neue', Helvetica, Arial-Unicode, Arial, Sans-serif">Created by Iqbal Widianto</text><text x="0" y="52" fill="#000000" font-size="5px" font-weight="bold" font-family="'Helvetica Neue', Helvetica, Arial-Unicode, Arial, Sans-serif">from the Noun Project</text></svg>